<svg width="52" height="52" viewBox="0 0 52 52" fill="none" xmlns="http://www.w3.org/2000/svg">
<path d="M28.061 19.5567V23.0504H32.4567L31.8419 27.8252H28.061V38.7696H23.2673V27.8252H19.1588V23.0504H23.2673V19.5567C23.2673 15.7759 26.325 13.2246 30.1058 13.2246C31.7688 13.2246 32.8196 13.4792 32.8196 13.4792V17.5146H30.1058C28.9846 17.5146 28.061 18.4354 28.061 19.5567Z" fill="white"/>
<mask id="mask0_670_258" style="mask-type:luminance" maskUnits="userSpaceOnUse" x="4" y="4" width="44" height="44">
<path d="M4.52289 4.52295H47.6829V47.6829H4.52289V4.52295Z" fill="white"/>
</mask>
<g mask="url(#mask0_670_258)">
<path d="M25.9973 47.4717C14.1673 47.4717 4.52289 37.849 4.52289 25.9973C4.52289 14.1484 14.1673 4.52295 25.9973 4.52295C37.8489 4.52295 47.4716 14.1673 47.4716 25.9973C47.4716 37.83 37.8489 47.4717 25.9973 47.4717ZM25.9973 5.70107C14.801 5.70107 5.70101 14.8011 5.70101 25.9973C5.70101 37.1963 14.801 46.2963 25.9973 46.2963C37.1962 46.2963 46.2962 37.1963 46.2962 25.9973C46.2962 14.8011 37.1962 5.70107 25.9973 5.70107Z" fill="white"/>
</g>
</svg>
