<svg width="52" height="52" viewBox="0 0 52 52" fill="none" xmlns="http://www.w3.org/2000/svg">
<mask id="mask0_670_265" style="mask-type:luminance" maskUnits="userSpaceOnUse" x="4" y="4" width="43" height="43">
<path d="M4.86145 4.86133H46.9814V46.9813H4.86145V4.86133Z" fill="white"/>
</mask>
<g mask="url(#mask0_670_265)">
<path d="M42.9379 38.0953C42.9379 40.7603 40.7604 42.9378 38.0954 42.9378H13.9019C11.2396 42.9378 9.05937 40.7603 9.05937 38.0953V13.9017C9.05937 11.2395 11.2396 9.05924 13.9019 9.05924H38.0954C40.7604 9.05924 42.9379 11.2395 42.9379 13.9017V38.0953ZM38.0954 4.86133H13.9019C8.91853 4.86133 4.86145 8.91841 4.86145 13.9017V38.0953C4.86145 43.0813 8.91853 47.1357 13.9019 47.1357H38.0954C43.0815 47.1357 47.1358 43.0813 47.1358 38.0953V13.9017C47.1358 8.91841 43.0815 4.86133 38.0954 4.86133Z" fill="white"/>
</g>
<path d="M26 33.1473C22.0513 33.1473 18.85 29.9487 18.85 26C18.85 22.0512 22.0513 18.85 26 18.85C29.9488 18.85 33.1473 22.0512 33.1473 26C33.1473 29.9487 29.9488 33.1473 26 33.1473ZM26 14.7739C19.8115 14.7739 14.774 19.8114 14.774 26C14.774 32.1885 19.8115 37.2233 26 37.2233C32.1886 37.2233 37.2234 32.1885 37.2234 26C37.2234 19.8114 32.1886 14.7739 26 14.7739Z" fill="white"/>
<path d="M38.7373 12.7075H36.2619C35.7906 12.7075 35.4033 13.0921 35.4033 13.5661V16.0415C35.4033 16.5154 35.7906 16.9027 36.2619 16.9027H38.7373C39.2112 16.9027 39.5985 16.5154 39.5985 16.0415V13.5661C39.5985 13.0921 39.2112 12.7075 38.7373 12.7075Z" fill="white"/>
</svg>
