<svg width="52" height="52" viewBox="0 0 52 52" fill="none" xmlns="http://www.w3.org/2000/svg">
<mask id="mask0_670_249" style="mask-type:luminance" maskUnits="userSpaceOnUse" x="5" y="5" width="42" height="42">
<path d="M5.20001 5.2002H46.8V46.8002H5.20001V5.2002Z" fill="white"/>
</mask>
<g mask="url(#mask0_670_249)">
<path d="M38.2823 5.2002H13.7177C9.02147 5.2002 5.20001 9.02165 5.20001 13.7179V38.2825C5.20001 42.9787 9.02147 46.8002 13.7177 46.8002H38.2823C42.9786 46.8002 46.8 42.9787 46.8 38.2825V13.7179C46.8 9.02165 42.9786 5.2002 38.2823 5.2002ZM44.3517 38.2825C44.3517 41.63 41.6298 44.3519 38.2823 44.3519H13.7177C10.3702 44.3519 7.64835 41.63 7.64835 38.2825V13.7179C7.64835 10.3704 10.3702 7.64853 13.7177 7.64853H38.2823C41.6298 7.64853 44.3517 10.3704 44.3517 13.7179V38.2825Z" fill="white"/>
</g>
<path d="M17.8425 21.729H12.9485C12.2742 21.729 11.7244 22.2761 11.7244 22.9505V38.8971C11.7244 39.5742 12.2742 40.1213 12.9485 40.1213H17.8425C18.5196 40.1213 19.0667 39.5742 19.0667 38.8971V22.9505C19.0667 22.2761 18.5196 21.729 17.8425 21.729ZM16.6183 37.6757H14.1727V24.1746H16.6183V37.6757Z" fill="white"/>
<path d="M28.8546 23.9092V22.9505C28.8546 22.2761 28.3075 21.729 27.6304 21.729H22.7365C22.0621 21.729 21.515 22.2761 21.515 22.9505V38.8971C21.515 39.5742 22.0621 40.1213 22.7365 40.1213H27.6304C28.3075 40.1213 28.8546 39.5742 28.8546 38.8971V33.0661C28.8546 31.9421 29.77 31.0267 30.894 31.0267C32.0179 31.0267 32.9333 31.9421 32.9333 33.0661V38.8971C32.9333 39.5742 33.4804 40.1213 34.1575 40.1213H39.0515C39.7258 40.1213 40.2756 39.5742 40.2756 38.8971V33.0661C40.2756 27.0888 34.7181 22.6011 28.8546 23.9092ZM37.8273 37.6757H35.3817V33.0661C35.3817 30.5934 33.3667 28.5784 30.894 28.5784C28.4213 28.5784 26.409 30.5934 26.409 33.0661V37.6757H23.9606V24.1746H26.409V25.5911C26.409 26.474 27.3136 27.0644 28.1233 26.7123C32.6598 24.7244 37.8273 28.0503 37.8273 33.0661V37.6757Z" fill="white"/>
<path d="M15.3969 11.8789C13.371 11.8789 11.7244 13.5256 11.7244 15.5487C11.7244 17.5718 13.371 19.2185 15.3969 19.2185C17.42 19.2185 19.0667 17.5718 19.0667 15.5487C19.0667 13.5256 17.42 11.8789 15.3969 11.8789ZM15.3969 16.7729C14.7225 16.7729 14.1727 16.2231 14.1727 15.5487C14.1727 14.8743 14.7225 14.3245 15.3969 14.3245C16.0712 14.3245 16.6183 14.8743 16.6183 15.5487C16.6183 16.2231 16.0712 16.7729 15.3969 16.7729Z" fill="white"/>
</svg>
